<svg width="23" height="14" viewBox="0 0 23 14" fill="none" xmlns="http://www.w3.org/2000/svg">
<path opacity="0.5" d="M8.51725 6C6.81149 3.65127 4.50586 0.000495454 2.50586 0C0.705631 -0.000445564 0.137768 0.70459 0.00615668 2.5C-0.176655 4.99388 3.759 6.22195 5.51724 8C6.98283 9.48211 8.64145 11.8934 9.47612 13.1608C9.81719 13.6786 10.3919 13.9981 11.0117 14C11.6316 13.9981 12.2062 13.6786 12.5473 13.1608C13.382 11.8934 15.0406 9.48211 16.5062 8C18.2644 6.22195 22.2001 4.99388 22.0173 2.5C21.8857 0.70459 21.3178 -0.000445564 19.5176 0C17.5176 0.000495454 15.2119 3.65127 13.5062 6C12.8023 6.96917 11.9615 8.36917 11.4594 9.22996C11.263 9.5667 10.7701 9.56746 10.5728 9.23127C10.0675 8.3706 9.22146 6.96966 8.51725 6Z" fill="black"/>
</svg>
