<svg width="35" height="35" viewBox="0 0 35 35" fill="none" xmlns="http://www.w3.org/2000/svg">
<path d="M0 17.5C0 27.165 7.83502 35 17.5 35V35C27.165 35 35 27.165 35 17.5V17.5C35 7.83502 27.165 0 17.5 0V0C7.83502 0 0 7.83502 0 17.5V17.5Z" fill="#A36C54"/>
<path d="M24 17.1877C24 18.8535 23.4874 20.2988 22.4622 21.5236L23.0587 22.1621C23.439 22.569 23.4134 23.2083 23.0019 23.5836L22.7265 23.8348C22.3222 24.2036 21.6966 24.1789 21.3226 23.7795L20.6382 23.0486C19.6726 23.5997 18.6236 23.8753 17.4911 23.8753C15.691 23.8753 14.1591 23.2323 12.8955 21.9462C11.6318 20.6479 11 19.0617 11 17.1877C11 15.3136 11.6318 13.7336 12.8955 12.4475C14.1591 11.1492 15.691 10.5 17.4911 10.5C19.2912 10.5 20.823 11.1492 22.0867 12.4475C23.3622 13.7336 24 15.3136 24 17.1877ZM17.4911 21.395C17.956 21.395 18.4209 21.3154 18.8858 21.1562L17.5191 19.6909C17.1395 19.2838 17.1653 18.6451 17.5765 18.27L17.8522 18.0186C18.2566 17.6497 18.8825 17.6745 19.2564 18.0743L20.7813 19.7047C21.282 18.9698 21.5323 18.1308 21.5323 17.1877C21.5323 15.9628 21.1449 14.9523 20.37 14.1562C19.5951 13.36 18.6355 12.9619 17.4911 12.9619C16.3466 12.9619 15.387 13.36 14.6121 14.1562C13.8372 14.9523 13.4498 15.9628 13.4498 17.1877C13.4498 18.4003 13.8372 19.4046 14.6121 20.2008C15.387 20.9969 16.3466 21.395 17.4911 21.395Z" fill="white"/>
</svg>
